<mxfile host="app.diagrams.net" agent="Mozilla/5.0 (Macintosh; Intel Mac OS X 10_15_7) AppleWebKit/537.36 (KHTML, like Gecko) Chrome/128.0.0.0 Safari/537.36" version="24.7.8" pages="2">
  <diagram name="Page-1" id="-H_mtQnk-PTXWXPvYvuk">
    <mxGraphModel dx="1363" dy="913" grid="1" gridSize="10" guides="1" tooltips="1" connect="1" arrows="1" fold="1" page="1" pageScale="1" pageWidth="1169" pageHeight="827" math="0" shadow="0">
      <root>
        <mxCell id="0" />
        <mxCell id="1" parent="0" />
        <mxCell id="zA23MoTUsTF4_91t8viU-2" value="MongoDB" style="shape=cylinder3;whiteSpace=wrap;html=1;boundedLbl=1;backgroundOutline=1;size=15;" parent="1" vertex="1">
          <mxGeometry x="210" y="70" width="60" height="80" as="geometry" />
        </mxCell>
        <mxCell id="zA23MoTUsTF4_91t8viU-3" value="pymongo-api" style="rounded=1;whiteSpace=wrap;html=1;" parent="1" vertex="1">
          <mxGeometry x="10" y="80" width="120" height="60" as="geometry" />
        </mxCell>
        <mxCell id="zA23MoTUsTF4_91t8viU-4" style="edgeStyle=orthogonalEdgeStyle;rounded=0;orthogonalLoop=1;jettySize=auto;html=1;exitX=1;exitY=0.5;exitDx=0;exitDy=0;entryX=0;entryY=0.5;entryDx=0;entryDy=0;entryPerimeter=0;" parent="1" source="zA23MoTUsTF4_91t8viU-3" target="zA23MoTUsTF4_91t8viU-2" edge="1">
          <mxGeometry relative="1" as="geometry" />
        </mxCell>
        <mxCell id="7KpjehtesX4XCopIGH7v-1" value="shard-1" style="shape=cylinder3;whiteSpace=wrap;html=1;boundedLbl=1;backgroundOutline=1;size=15;" parent="1" vertex="1">
          <mxGeometry x="340" y="230" width="60" height="80" as="geometry" />
        </mxCell>
        <mxCell id="7KpjehtesX4XCopIGH7v-53" style="edgeStyle=orthogonalEdgeStyle;rounded=1;orthogonalLoop=1;jettySize=auto;html=1;exitX=1;exitY=0.5;exitDx=0;exitDy=0;curved=0;" parent="1" source="7KpjehtesX4XCopIGH7v-2" target="7KpjehtesX4XCopIGH7v-49" edge="1">
          <mxGeometry relative="1" as="geometry">
            <Array as="points">
              <mxPoint x="180" y="330" />
              <mxPoint x="180" y="270" />
            </Array>
          </mxGeometry>
        </mxCell>
        <mxCell id="7KpjehtesX4XCopIGH7v-54" style="edgeStyle=orthogonalEdgeStyle;rounded=1;orthogonalLoop=1;jettySize=auto;html=1;exitX=1;exitY=0.5;exitDx=0;exitDy=0;entryX=0.5;entryY=0;entryDx=0;entryDy=0;curved=0;" parent="1" source="7KpjehtesX4XCopIGH7v-2" target="7KpjehtesX4XCopIGH7v-50" edge="1">
          <mxGeometry relative="1" as="geometry">
            <Array as="points">
              <mxPoint x="180" y="330" />
              <mxPoint x="180" y="390" />
            </Array>
          </mxGeometry>
        </mxCell>
        <mxCell id="7KpjehtesX4XCopIGH7v-2" value="pymongo-api" style="rounded=1;whiteSpace=wrap;html=1;" parent="1" vertex="1">
          <mxGeometry x="10" y="300" width="120" height="60" as="geometry" />
        </mxCell>
        <mxCell id="7KpjehtesX4XCopIGH7v-5" value="shard-2" style="shape=cylinder3;whiteSpace=wrap;html=1;boundedLbl=1;backgroundOutline=1;size=15;" parent="1" vertex="1">
          <mxGeometry x="340" y="370" width="60" height="80" as="geometry" />
        </mxCell>
        <mxCell id="7KpjehtesX4XCopIGH7v-64" style="edgeStyle=orthogonalEdgeStyle;rounded=1;orthogonalLoop=1;jettySize=auto;html=1;exitX=1;exitY=0.5;exitDx=0;exitDy=0;curved=0;" parent="1" source="7KpjehtesX4XCopIGH7v-8" target="7KpjehtesX4XCopIGH7v-61" edge="1">
          <mxGeometry relative="1" as="geometry" />
        </mxCell>
        <mxCell id="7KpjehtesX4XCopIGH7v-65" style="edgeStyle=orthogonalEdgeStyle;rounded=1;orthogonalLoop=1;jettySize=auto;html=1;exitX=1;exitY=0.5;exitDx=0;exitDy=0;curved=0;" parent="1" source="7KpjehtesX4XCopIGH7v-8" target="7KpjehtesX4XCopIGH7v-62" edge="1">
          <mxGeometry relative="1" as="geometry" />
        </mxCell>
        <mxCell id="7KpjehtesX4XCopIGH7v-8" value="pymongo-api" style="rounded=1;whiteSpace=wrap;html=1;" parent="1" vertex="1">
          <mxGeometry x="440" y="350" width="120" height="60" as="geometry" />
        </mxCell>
        <mxCell id="7KpjehtesX4XCopIGH7v-12" value="repl-1-1" style="shape=cylinder3;whiteSpace=wrap;html=1;boundedLbl=1;backgroundOutline=1;size=15;fillColor=#e1d5e7;strokeColor=#9673a6;" parent="1" vertex="1">
          <mxGeometry x="710.25" y="180" width="60" height="80" as="geometry" />
        </mxCell>
        <mxCell id="7KpjehtesX4XCopIGH7v-13" value="repl-1-2" style="shape=cylinder3;whiteSpace=wrap;html=1;boundedLbl=1;backgroundOutline=1;size=15;fillColor=#e1d5e7;strokeColor=#9673a6;" parent="1" vertex="1">
          <mxGeometry x="800.25" y="180" width="60" height="80" as="geometry" />
        </mxCell>
        <mxCell id="7KpjehtesX4XCopIGH7v-14" value="repl-1-3" style="shape=cylinder3;whiteSpace=wrap;html=1;boundedLbl=1;backgroundOutline=1;size=15;fillColor=#e1d5e7;strokeColor=#9673a6;" parent="1" vertex="1">
          <mxGeometry x="890.25" y="180" width="60" height="80" as="geometry" />
        </mxCell>
        <mxCell id="7KpjehtesX4XCopIGH7v-18" value="repl-2-1" style="shape=cylinder3;whiteSpace=wrap;html=1;boundedLbl=1;backgroundOutline=1;size=15;fillColor=#f8cecc;strokeColor=#b85450;" parent="1" vertex="1">
          <mxGeometry x="710.25" y="480" width="60" height="80" as="geometry" />
        </mxCell>
        <mxCell id="7KpjehtesX4XCopIGH7v-19" value="repl-2-2" style="shape=cylinder3;whiteSpace=wrap;html=1;boundedLbl=1;backgroundOutline=1;size=15;fillColor=#f8cecc;strokeColor=#b85450;" parent="1" vertex="1">
          <mxGeometry x="800.25" y="480" width="60" height="80" as="geometry" />
        </mxCell>
        <mxCell id="7KpjehtesX4XCopIGH7v-20" value="repl-2-3" style="shape=cylinder3;whiteSpace=wrap;html=1;boundedLbl=1;backgroundOutline=1;size=15;fillColor=#f8cecc;strokeColor=#b85450;" parent="1" vertex="1">
          <mxGeometry x="890.25" y="480" width="60" height="80" as="geometry" />
        </mxCell>
        <mxCell id="7KpjehtesX4XCopIGH7v-24" value="redis1" style="shape=cylinder3;whiteSpace=wrap;html=1;boundedLbl=1;backgroundOutline=1;size=15;fillColor=#bac8d3;strokeColor=#23445d;" parent="1" vertex="1">
          <mxGeometry x="590" y="180" width="60" height="80" as="geometry" />
        </mxCell>
        <mxCell id="7KpjehtesX4XCopIGH7v-48" value="Конфигурационный сервер" style="rounded=1;whiteSpace=wrap;html=1;fillColor=#ffe6cc;strokeColor=#d79b00;" parent="1" vertex="1">
          <mxGeometry x="10" y="410" width="120" height="50" as="geometry" />
        </mxCell>
        <mxCell id="7KpjehtesX4XCopIGH7v-52" style="edgeStyle=orthogonalEdgeStyle;rounded=1;orthogonalLoop=1;jettySize=auto;html=1;exitX=0.5;exitY=0;exitDx=0;exitDy=0;entryX=1;entryY=0.5;entryDx=0;entryDy=0;curved=0;strokeColor=#FF8000;strokeWidth=2;" parent="1" source="7KpjehtesX4XCopIGH7v-49" target="7KpjehtesX4XCopIGH7v-48" edge="1">
          <mxGeometry relative="1" as="geometry">
            <mxPoint x="130" y="430" as="targetPoint" />
            <Array as="points">
              <mxPoint x="180" y="270" />
              <mxPoint x="180" y="435" />
            </Array>
          </mxGeometry>
        </mxCell>
        <mxCell id="7KpjehtesX4XCopIGH7v-55" style="edgeStyle=orthogonalEdgeStyle;rounded=0;orthogonalLoop=1;jettySize=auto;html=1;exitX=0;exitY=0.5;exitDx=0;exitDy=0;entryX=1;entryY=0.5;entryDx=0;entryDy=0;endArrow=none;endFill=0;dashed=1;dashPattern=8 8;" parent="1" source="7KpjehtesX4XCopIGH7v-49" target="7KpjehtesX4XCopIGH7v-50" edge="1">
          <mxGeometry relative="1" as="geometry" />
        </mxCell>
        <mxCell id="7KpjehtesX4XCopIGH7v-49" value="Роутер-2" style="rounded=1;whiteSpace=wrap;html=1;fillColor=#fff2cc;strokeColor=#d6b656;rotation=-90;" parent="1" vertex="1">
          <mxGeometry x="205" y="250" width="65" height="40" as="geometry" />
        </mxCell>
        <mxCell id="7KpjehtesX4XCopIGH7v-51" style="edgeStyle=orthogonalEdgeStyle;rounded=1;orthogonalLoop=1;jettySize=auto;html=1;exitX=0.5;exitY=0;exitDx=0;exitDy=0;entryX=1;entryY=0.5;entryDx=0;entryDy=0;curved=0;strokeColor=#FF8000;strokeWidth=2;" parent="1" source="7KpjehtesX4XCopIGH7v-50" target="7KpjehtesX4XCopIGH7v-48" edge="1">
          <mxGeometry relative="1" as="geometry">
            <Array as="points">
              <mxPoint x="180" y="390" />
              <mxPoint x="180" y="435" />
            </Array>
          </mxGeometry>
        </mxCell>
        <mxCell id="7KpjehtesX4XCopIGH7v-50" value="Роутер-1" style="rounded=1;whiteSpace=wrap;html=1;fillColor=#fff2cc;strokeColor=#d6b656;rotation=-90;" parent="1" vertex="1">
          <mxGeometry x="205.5" y="370" width="65" height="40" as="geometry" />
        </mxCell>
        <mxCell id="7KpjehtesX4XCopIGH7v-57" style="edgeStyle=orthogonalEdgeStyle;rounded=1;orthogonalLoop=1;jettySize=auto;html=1;exitX=0.5;exitY=1;exitDx=0;exitDy=0;entryX=0;entryY=0.5;entryDx=0;entryDy=0;entryPerimeter=0;curved=0;" parent="1" source="7KpjehtesX4XCopIGH7v-49" target="7KpjehtesX4XCopIGH7v-5" edge="1">
          <mxGeometry relative="1" as="geometry" />
        </mxCell>
        <mxCell id="7KpjehtesX4XCopIGH7v-58" style="edgeStyle=orthogonalEdgeStyle;rounded=1;orthogonalLoop=1;jettySize=auto;html=1;exitX=0.5;exitY=1;exitDx=0;exitDy=0;entryX=0;entryY=0.5;entryDx=0;entryDy=0;entryPerimeter=0;curved=0;" parent="1" source="7KpjehtesX4XCopIGH7v-50" target="7KpjehtesX4XCopIGH7v-1" edge="1">
          <mxGeometry relative="1" as="geometry" />
        </mxCell>
        <mxCell id="7KpjehtesX4XCopIGH7v-60" style="edgeStyle=orthogonalEdgeStyle;rounded=0;orthogonalLoop=1;jettySize=auto;html=1;exitX=0;exitY=0.5;exitDx=0;exitDy=0;entryX=1;entryY=0.5;entryDx=0;entryDy=0;endArrow=none;endFill=0;dashed=1;dashPattern=8 8;" parent="1" source="7KpjehtesX4XCopIGH7v-61" target="7KpjehtesX4XCopIGH7v-62" edge="1">
          <mxGeometry relative="1" as="geometry" />
        </mxCell>
        <mxCell id="7KpjehtesX4XCopIGH7v-66" style="edgeStyle=orthogonalEdgeStyle;rounded=1;orthogonalLoop=1;jettySize=auto;html=1;exitX=0.5;exitY=0;exitDx=0;exitDy=0;entryX=1;entryY=0.5;entryDx=0;entryDy=0;curved=0;strokeColor=#FF8000;strokeWidth=2;" parent="1" source="7KpjehtesX4XCopIGH7v-61" target="7KpjehtesX4XCopIGH7v-63" edge="1">
          <mxGeometry relative="1" as="geometry" />
        </mxCell>
        <mxCell id="ZkxTK4wxiajPIn4mrlBF-107" style="edgeStyle=orthogonalEdgeStyle;rounded=1;orthogonalLoop=1;jettySize=auto;html=1;exitX=0.5;exitY=1;exitDx=0;exitDy=0;entryX=0.5;entryY=1;entryDx=0;entryDy=0;curved=0;" edge="1" parent="1" target="ZkxTK4wxiajPIn4mrlBF-103">
          <mxGeometry relative="1" as="geometry">
            <mxPoint x="610" y="320" as="sourcePoint" />
          </mxGeometry>
        </mxCell>
        <mxCell id="ZkxTK4wxiajPIn4mrlBF-108" style="edgeStyle=orthogonalEdgeStyle;rounded=1;orthogonalLoop=1;jettySize=auto;html=1;exitX=0.5;exitY=1;exitDx=0;exitDy=0;curved=0;" edge="1" parent="1" target="ZkxTK4wxiajPIn4mrlBF-105">
          <mxGeometry relative="1" as="geometry">
            <mxPoint x="610" y="320" as="sourcePoint" />
          </mxGeometry>
        </mxCell>
        <mxCell id="7KpjehtesX4XCopIGH7v-61" value="Роутер-2" style="rounded=1;whiteSpace=wrap;html=1;fillColor=#fff2cc;strokeColor=#d6b656;rotation=-90;" parent="1" vertex="1">
          <mxGeometry x="637.25" y="300" width="65" height="40" as="geometry" />
        </mxCell>
        <mxCell id="7KpjehtesX4XCopIGH7v-67" style="edgeStyle=orthogonalEdgeStyle;rounded=1;orthogonalLoop=1;jettySize=auto;html=1;exitX=0.5;exitY=0;exitDx=0;exitDy=0;entryX=1;entryY=0.5;entryDx=0;entryDy=0;curved=0;strokeColor=#FF8000;strokeWidth=2;" parent="1" source="7KpjehtesX4XCopIGH7v-62" target="7KpjehtesX4XCopIGH7v-63" edge="1">
          <mxGeometry relative="1" as="geometry" />
        </mxCell>
        <mxCell id="ZkxTK4wxiajPIn4mrlBF-109" style="edgeStyle=orthogonalEdgeStyle;rounded=1;orthogonalLoop=1;jettySize=auto;html=1;exitX=0.5;exitY=1;exitDx=0;exitDy=0;entryX=0.75;entryY=1;entryDx=0;entryDy=0;curved=0;" edge="1" parent="1" target="ZkxTK4wxiajPIn4mrlBF-103">
          <mxGeometry relative="1" as="geometry">
            <mxPoint x="610.5" y="440" as="sourcePoint" />
          </mxGeometry>
        </mxCell>
        <mxCell id="ZkxTK4wxiajPIn4mrlBF-110" style="edgeStyle=orthogonalEdgeStyle;rounded=1;orthogonalLoop=1;jettySize=auto;html=1;exitX=0.5;exitY=1;exitDx=0;exitDy=0;entryX=0.75;entryY=0;entryDx=0;entryDy=0;curved=0;" edge="1" parent="1" target="ZkxTK4wxiajPIn4mrlBF-105">
          <mxGeometry relative="1" as="geometry">
            <mxPoint x="610.5" y="440" as="sourcePoint" />
          </mxGeometry>
        </mxCell>
        <mxCell id="7KpjehtesX4XCopIGH7v-62" value="Роутер-1" style="rounded=1;whiteSpace=wrap;html=1;fillColor=#fff2cc;strokeColor=#d6b656;rotation=-90;" parent="1" vertex="1">
          <mxGeometry x="637.75" y="420" width="65" height="40" as="geometry" />
        </mxCell>
        <mxCell id="7KpjehtesX4XCopIGH7v-63" value="Конфигурационный сервер" style="rounded=1;whiteSpace=wrap;html=1;fillColor=#ffe6cc;strokeColor=#d79b00;" parent="1" vertex="1">
          <mxGeometry x="440" y="460" width="120" height="50" as="geometry" />
        </mxCell>
        <mxCell id="ZkxTK4wxiajPIn4mrlBF-103" value="" style="rounded=1;whiteSpace=wrap;html=1;fillColor=none;dashed=1;" vertex="1" parent="1">
          <mxGeometry x="690" y="140" width="290" height="160" as="geometry" />
        </mxCell>
        <mxCell id="ZkxTK4wxiajPIn4mrlBF-104" value="rs0" style="text;html=1;align=center;verticalAlign=middle;whiteSpace=wrap;rounded=0;" vertex="1" parent="1">
          <mxGeometry x="915.25" y="140" width="60" height="30" as="geometry" />
        </mxCell>
        <mxCell id="ZkxTK4wxiajPIn4mrlBF-105" value="" style="rounded=1;whiteSpace=wrap;html=1;fillColor=none;dashed=1;" vertex="1" parent="1">
          <mxGeometry x="690" y="460" width="300" height="160" as="geometry" />
        </mxCell>
        <mxCell id="ZkxTK4wxiajPIn4mrlBF-106" value="rs1" style="text;html=1;align=center;verticalAlign=middle;whiteSpace=wrap;rounded=0;" vertex="1" parent="1">
          <mxGeometry x="915.25" y="590" width="60" height="30" as="geometry" />
        </mxCell>
        <mxCell id="ZkxTK4wxiajPIn4mrlBF-111" style="edgeStyle=orthogonalEdgeStyle;rounded=1;orthogonalLoop=1;jettySize=auto;html=1;exitX=0.5;exitY=0;exitDx=0;exitDy=0;entryX=0;entryY=0.5;entryDx=0;entryDy=0;entryPerimeter=0;curved=0;" edge="1" parent="1" source="7KpjehtesX4XCopIGH7v-8" target="7KpjehtesX4XCopIGH7v-24">
          <mxGeometry relative="1" as="geometry" />
        </mxCell>
        <mxCell id="ZkxTK4wxiajPIn4mrlBF-112" style="edgeStyle=orthogonalEdgeStyle;rounded=1;orthogonalLoop=1;jettySize=auto;html=1;exitX=1;exitY=0.5;exitDx=0;exitDy=0;curved=0;" edge="1" parent="1" source="ZkxTK4wxiajPIn4mrlBF-114" target="ZkxTK4wxiajPIn4mrlBF-126">
          <mxGeometry relative="1" as="geometry" />
        </mxCell>
        <mxCell id="ZkxTK4wxiajPIn4mrlBF-113" style="edgeStyle=orthogonalEdgeStyle;rounded=1;orthogonalLoop=1;jettySize=auto;html=1;exitX=1;exitY=0.5;exitDx=0;exitDy=0;curved=0;" edge="1" parent="1" source="ZkxTK4wxiajPIn4mrlBF-114" target="ZkxTK4wxiajPIn4mrlBF-130">
          <mxGeometry relative="1" as="geometry" />
        </mxCell>
        <mxCell id="ZkxTK4wxiajPIn4mrlBF-114" value="pymongo-api" style="rounded=1;whiteSpace=wrap;html=1;" vertex="1" parent="1">
          <mxGeometry x="480" y="1120" width="120" height="60" as="geometry" />
        </mxCell>
        <mxCell id="ZkxTK4wxiajPIn4mrlBF-115" value="repl-1-1" style="shape=cylinder3;whiteSpace=wrap;html=1;boundedLbl=1;backgroundOutline=1;size=15;fillColor=#e1d5e7;strokeColor=#9673a6;" vertex="1" parent="1">
          <mxGeometry x="750.25" y="950" width="60" height="80" as="geometry" />
        </mxCell>
        <mxCell id="ZkxTK4wxiajPIn4mrlBF-116" value="repl-1-2" style="shape=cylinder3;whiteSpace=wrap;html=1;boundedLbl=1;backgroundOutline=1;size=15;fillColor=#e1d5e7;strokeColor=#9673a6;" vertex="1" parent="1">
          <mxGeometry x="840.25" y="950" width="60" height="80" as="geometry" />
        </mxCell>
        <mxCell id="ZkxTK4wxiajPIn4mrlBF-117" value="repl-1-3" style="shape=cylinder3;whiteSpace=wrap;html=1;boundedLbl=1;backgroundOutline=1;size=15;fillColor=#e1d5e7;strokeColor=#9673a6;" vertex="1" parent="1">
          <mxGeometry x="930.25" y="950" width="60" height="80" as="geometry" />
        </mxCell>
        <mxCell id="ZkxTK4wxiajPIn4mrlBF-118" value="repl-2-1" style="shape=cylinder3;whiteSpace=wrap;html=1;boundedLbl=1;backgroundOutline=1;size=15;fillColor=#f8cecc;strokeColor=#b85450;" vertex="1" parent="1">
          <mxGeometry x="750.25" y="1250" width="60" height="80" as="geometry" />
        </mxCell>
        <mxCell id="ZkxTK4wxiajPIn4mrlBF-119" value="repl-2-2" style="shape=cylinder3;whiteSpace=wrap;html=1;boundedLbl=1;backgroundOutline=1;size=15;fillColor=#f8cecc;strokeColor=#b85450;" vertex="1" parent="1">
          <mxGeometry x="840.25" y="1250" width="60" height="80" as="geometry" />
        </mxCell>
        <mxCell id="ZkxTK4wxiajPIn4mrlBF-120" value="repl-2-3" style="shape=cylinder3;whiteSpace=wrap;html=1;boundedLbl=1;backgroundOutline=1;size=15;fillColor=#f8cecc;strokeColor=#b85450;" vertex="1" parent="1">
          <mxGeometry x="930.25" y="1250" width="60" height="80" as="geometry" />
        </mxCell>
        <mxCell id="ZkxTK4wxiajPIn4mrlBF-121" value="redis1" style="shape=cylinder3;whiteSpace=wrap;html=1;boundedLbl=1;backgroundOutline=1;size=15;fillColor=#bac8d3;strokeColor=#23445d;" vertex="1" parent="1">
          <mxGeometry x="630" y="950" width="60" height="80" as="geometry" />
        </mxCell>
        <mxCell id="ZkxTK4wxiajPIn4mrlBF-122" style="edgeStyle=orthogonalEdgeStyle;rounded=0;orthogonalLoop=1;jettySize=auto;html=1;exitX=0;exitY=0.5;exitDx=0;exitDy=0;entryX=1;entryY=0.5;entryDx=0;entryDy=0;endArrow=none;endFill=0;dashed=1;dashPattern=8 8;" edge="1" parent="1" source="ZkxTK4wxiajPIn4mrlBF-126" target="ZkxTK4wxiajPIn4mrlBF-130">
          <mxGeometry relative="1" as="geometry" />
        </mxCell>
        <mxCell id="ZkxTK4wxiajPIn4mrlBF-123" style="edgeStyle=orthogonalEdgeStyle;rounded=1;orthogonalLoop=1;jettySize=auto;html=1;exitX=0.5;exitY=0;exitDx=0;exitDy=0;entryX=1;entryY=0.5;entryDx=0;entryDy=0;curved=0;strokeColor=#FF8000;strokeWidth=2;" edge="1" parent="1" source="ZkxTK4wxiajPIn4mrlBF-126" target="ZkxTK4wxiajPIn4mrlBF-131">
          <mxGeometry relative="1" as="geometry" />
        </mxCell>
        <mxCell id="ZkxTK4wxiajPIn4mrlBF-124" style="edgeStyle=orthogonalEdgeStyle;rounded=1;orthogonalLoop=1;jettySize=auto;html=1;exitX=0.5;exitY=1;exitDx=0;exitDy=0;entryX=0.5;entryY=1;entryDx=0;entryDy=0;curved=0;" edge="1" parent="1" target="ZkxTK4wxiajPIn4mrlBF-132">
          <mxGeometry relative="1" as="geometry">
            <mxPoint x="650" y="1090" as="sourcePoint" />
          </mxGeometry>
        </mxCell>
        <mxCell id="ZkxTK4wxiajPIn4mrlBF-125" style="edgeStyle=orthogonalEdgeStyle;rounded=1;orthogonalLoop=1;jettySize=auto;html=1;exitX=0.5;exitY=1;exitDx=0;exitDy=0;curved=0;" edge="1" parent="1" target="ZkxTK4wxiajPIn4mrlBF-134">
          <mxGeometry relative="1" as="geometry">
            <mxPoint x="650" y="1090" as="sourcePoint" />
          </mxGeometry>
        </mxCell>
        <mxCell id="ZkxTK4wxiajPIn4mrlBF-126" value="Роутер-2" style="rounded=1;whiteSpace=wrap;html=1;fillColor=#fff2cc;strokeColor=#d6b656;rotation=-90;" vertex="1" parent="1">
          <mxGeometry x="677.25" y="1070" width="65" height="40" as="geometry" />
        </mxCell>
        <mxCell id="ZkxTK4wxiajPIn4mrlBF-127" style="edgeStyle=orthogonalEdgeStyle;rounded=1;orthogonalLoop=1;jettySize=auto;html=1;exitX=0.5;exitY=0;exitDx=0;exitDy=0;entryX=1;entryY=0.5;entryDx=0;entryDy=0;curved=0;strokeColor=#FF8000;strokeWidth=2;" edge="1" parent="1" source="ZkxTK4wxiajPIn4mrlBF-130" target="ZkxTK4wxiajPIn4mrlBF-131">
          <mxGeometry relative="1" as="geometry" />
        </mxCell>
        <mxCell id="ZkxTK4wxiajPIn4mrlBF-128" style="edgeStyle=orthogonalEdgeStyle;rounded=1;orthogonalLoop=1;jettySize=auto;html=1;exitX=0.5;exitY=1;exitDx=0;exitDy=0;entryX=0.75;entryY=1;entryDx=0;entryDy=0;curved=0;" edge="1" parent="1" target="ZkxTK4wxiajPIn4mrlBF-132">
          <mxGeometry relative="1" as="geometry">
            <mxPoint x="650.5" y="1210" as="sourcePoint" />
          </mxGeometry>
        </mxCell>
        <mxCell id="ZkxTK4wxiajPIn4mrlBF-129" style="edgeStyle=orthogonalEdgeStyle;rounded=1;orthogonalLoop=1;jettySize=auto;html=1;exitX=0.5;exitY=1;exitDx=0;exitDy=0;entryX=0.75;entryY=0;entryDx=0;entryDy=0;curved=0;" edge="1" parent="1" target="ZkxTK4wxiajPIn4mrlBF-134">
          <mxGeometry relative="1" as="geometry">
            <mxPoint x="650.5" y="1210" as="sourcePoint" />
          </mxGeometry>
        </mxCell>
        <mxCell id="ZkxTK4wxiajPIn4mrlBF-130" value="Роутер-1" style="rounded=1;whiteSpace=wrap;html=1;fillColor=#fff2cc;strokeColor=#d6b656;rotation=-90;" vertex="1" parent="1">
          <mxGeometry x="677.75" y="1190" width="65" height="40" as="geometry" />
        </mxCell>
        <mxCell id="ZkxTK4wxiajPIn4mrlBF-131" value="Конфигурационный сервер" style="rounded=1;whiteSpace=wrap;html=1;fillColor=#ffe6cc;strokeColor=#d79b00;" vertex="1" parent="1">
          <mxGeometry x="480" y="1380" width="120" height="50" as="geometry" />
        </mxCell>
        <mxCell id="ZkxTK4wxiajPIn4mrlBF-132" value="" style="rounded=1;whiteSpace=wrap;html=1;fillColor=none;dashed=1;" vertex="1" parent="1">
          <mxGeometry x="730" y="910" width="290" height="160" as="geometry" />
        </mxCell>
        <mxCell id="ZkxTK4wxiajPIn4mrlBF-133" value="rs0" style="text;html=1;align=center;verticalAlign=middle;whiteSpace=wrap;rounded=0;" vertex="1" parent="1">
          <mxGeometry x="955.25" y="910" width="60" height="30" as="geometry" />
        </mxCell>
        <mxCell id="ZkxTK4wxiajPIn4mrlBF-134" value="" style="rounded=1;whiteSpace=wrap;html=1;fillColor=none;dashed=1;" vertex="1" parent="1">
          <mxGeometry x="730" y="1230" width="300" height="160" as="geometry" />
        </mxCell>
        <mxCell id="ZkxTK4wxiajPIn4mrlBF-135" value="rs1" style="text;html=1;align=center;verticalAlign=middle;whiteSpace=wrap;rounded=0;" vertex="1" parent="1">
          <mxGeometry x="955.25" y="1360" width="60" height="30" as="geometry" />
        </mxCell>
        <mxCell id="ZkxTK4wxiajPIn4mrlBF-136" style="edgeStyle=orthogonalEdgeStyle;rounded=1;orthogonalLoop=1;jettySize=auto;html=1;exitX=0.5;exitY=0;exitDx=0;exitDy=0;entryX=0;entryY=0.5;entryDx=0;entryDy=0;entryPerimeter=0;curved=0;" edge="1" parent="1" source="ZkxTK4wxiajPIn4mrlBF-114" target="ZkxTK4wxiajPIn4mrlBF-121">
          <mxGeometry relative="1" as="geometry" />
        </mxCell>
        <mxCell id="ZkxTK4wxiajPIn4mrlBF-137" value="pymongo-api" style="rounded=1;whiteSpace=wrap;html=1;" vertex="1" parent="1">
          <mxGeometry x="480" y="1220" width="120" height="60" as="geometry" />
        </mxCell>
        <mxCell id="ZkxTK4wxiajPIn4mrlBF-145" style="edgeStyle=orthogonalEdgeStyle;rounded=1;orthogonalLoop=1;jettySize=auto;html=1;exitX=0;exitY=0.5;exitDx=0;exitDy=0;entryX=1;entryY=0.5;entryDx=0;entryDy=0;curved=0;strokeColor=#B1DDF0;strokeWidth=3;" edge="1" parent="1" source="ZkxTK4wxiajPIn4mrlBF-138" target="ZkxTK4wxiajPIn4mrlBF-140">
          <mxGeometry relative="1" as="geometry">
            <Array as="points">
              <mxPoint x="440" y="1120" />
            </Array>
          </mxGeometry>
        </mxCell>
        <mxCell id="ZkxTK4wxiajPIn4mrlBF-138" value="" style="rounded=1;whiteSpace=wrap;html=1;fillColor=default;dashed=1;fillStyle=auto;opacity=50;" vertex="1" parent="1">
          <mxGeometry x="440" y="1070" width="190" height="120" as="geometry" />
        </mxCell>
        <mxCell id="ZkxTK4wxiajPIn4mrlBF-147" style="edgeStyle=orthogonalEdgeStyle;rounded=1;orthogonalLoop=1;jettySize=auto;html=1;exitX=0;exitY=0.5;exitDx=0;exitDy=0;entryX=1;entryY=0.5;entryDx=0;entryDy=0;curved=0;strokeColor=#B1DDF0;strokeWidth=3;" edge="1" parent="1" source="ZkxTK4wxiajPIn4mrlBF-139" target="ZkxTK4wxiajPIn4mrlBF-140">
          <mxGeometry relative="1" as="geometry" />
        </mxCell>
        <mxCell id="ZkxTK4wxiajPIn4mrlBF-139" value="" style="rounded=1;whiteSpace=wrap;html=1;fillColor=default;dashed=1;opacity=50;" vertex="1" parent="1">
          <mxGeometry x="440" y="1210" width="190" height="110" as="geometry" />
        </mxCell>
        <mxCell id="ZkxTK4wxiajPIn4mrlBF-140" value="Consul" style="rounded=0;whiteSpace=wrap;html=1;fillColor=#dae8fc;strokeColor=#6c8ebf;" vertex="1" parent="1">
          <mxGeometry x="240" y="1090" width="120" height="60" as="geometry" />
        </mxCell>
        <mxCell id="ZkxTK4wxiajPIn4mrlBF-148" style="edgeStyle=orthogonalEdgeStyle;rounded=1;orthogonalLoop=1;jettySize=auto;html=1;exitX=1;exitY=0.5;exitDx=0;exitDy=0;entryX=0;entryY=0.75;entryDx=0;entryDy=0;curved=0;strokeColor=#97D077;strokeWidth=3;" edge="1" parent="1" source="ZkxTK4wxiajPIn4mrlBF-141" target="ZkxTK4wxiajPIn4mrlBF-138">
          <mxGeometry relative="1" as="geometry">
            <Array as="points">
              <mxPoint x="420" y="1290" />
              <mxPoint x="420" y="1160" />
            </Array>
          </mxGeometry>
        </mxCell>
        <mxCell id="ZkxTK4wxiajPIn4mrlBF-149" style="edgeStyle=orthogonalEdgeStyle;rounded=1;orthogonalLoop=1;jettySize=auto;html=1;exitX=1;exitY=0.75;exitDx=0;exitDy=0;entryX=0.25;entryY=1;entryDx=0;entryDy=0;curved=0;strokeColor=#97D077;strokeWidth=3;" edge="1" parent="1" source="ZkxTK4wxiajPIn4mrlBF-141" target="ZkxTK4wxiajPIn4mrlBF-139">
          <mxGeometry relative="1" as="geometry" />
        </mxCell>
        <mxCell id="ZkxTK4wxiajPIn4mrlBF-141" value="APISIX Gateway" style="rounded=0;whiteSpace=wrap;html=1;fillColor=#d5e8d4;strokeColor=#82b366;" vertex="1" parent="1">
          <mxGeometry x="240" y="1260" width="120" height="60" as="geometry" />
        </mxCell>
        <mxCell id="ZkxTK4wxiajPIn4mrlBF-144" style="edgeStyle=orthogonalEdgeStyle;rounded=1;orthogonalLoop=1;jettySize=auto;html=1;exitX=0.5;exitY=0;exitDx=0;exitDy=0;entryX=0.5;entryY=1;entryDx=0;entryDy=0;curved=0;" edge="1" parent="1" source="ZkxTK4wxiajPIn4mrlBF-142" target="ZkxTK4wxiajPIn4mrlBF-140">
          <mxGeometry relative="1" as="geometry" />
        </mxCell>
        <mxCell id="ZkxTK4wxiajPIn4mrlBF-142" value="consul_kv" style="rounded=1;whiteSpace=wrap;html=1;fillColor=#d5e8d4;strokeColor=#82b366;opacity=50;" vertex="1" parent="1">
          <mxGeometry x="290" y="1250" width="90" height="30" as="geometry" />
        </mxCell>
        <mxCell id="ZkxTK4wxiajPIn4mrlBF-151" style="edgeStyle=orthogonalEdgeStyle;rounded=0;orthogonalLoop=1;jettySize=auto;html=1;exitX=1;exitY=0.5;exitDx=0;exitDy=0;entryX=0;entryY=0.5;entryDx=0;entryDy=0;" edge="1" parent="1" source="ZkxTK4wxiajPIn4mrlBF-150" target="ZkxTK4wxiajPIn4mrlBF-141">
          <mxGeometry relative="1" as="geometry" />
        </mxCell>
        <mxCell id="ZkxTK4wxiajPIn4mrlBF-150" value="Сайт" style="rounded=1;whiteSpace=wrap;html=1;fillColor=#b1ddf0;strokeColor=#10739e;" vertex="1" parent="1">
          <mxGeometry x="70" y="1260" width="120" height="60" as="geometry" />
        </mxCell>
        <mxCell id="ZkxTK4wxiajPIn4mrlBF-153" value="" style="edgeStyle=orthogonalEdgeStyle;rounded=0;orthogonalLoop=1;jettySize=auto;html=1;" edge="1" parent="1" source="ZkxTK4wxiajPIn4mrlBF-152" target="ZkxTK4wxiajPIn4mrlBF-150">
          <mxGeometry relative="1" as="geometry" />
        </mxCell>
        <mxCell id="ZkxTK4wxiajPIn4mrlBF-152" value="Actor" style="shape=umlActor;verticalLabelPosition=bottom;verticalAlign=top;html=1;outlineConnect=0;" vertex="1" parent="1">
          <mxGeometry x="115" y="1120" width="30" height="60" as="geometry" />
        </mxCell>
        <mxCell id="ZkxTK4wxiajPIn4mrlBF-155" style="edgeStyle=orthogonalEdgeStyle;rounded=1;orthogonalLoop=1;jettySize=auto;html=1;exitX=1;exitY=0.5;exitDx=0;exitDy=0;curved=0;" edge="1" parent="1" source="ZkxTK4wxiajPIn4mrlBF-157" target="ZkxTK4wxiajPIn4mrlBF-169">
          <mxGeometry relative="1" as="geometry" />
        </mxCell>
        <mxCell id="ZkxTK4wxiajPIn4mrlBF-156" style="edgeStyle=orthogonalEdgeStyle;rounded=1;orthogonalLoop=1;jettySize=auto;html=1;exitX=1;exitY=0.5;exitDx=0;exitDy=0;curved=0;" edge="1" parent="1" source="ZkxTK4wxiajPIn4mrlBF-157" target="ZkxTK4wxiajPIn4mrlBF-173">
          <mxGeometry relative="1" as="geometry" />
        </mxCell>
        <mxCell id="ZkxTK4wxiajPIn4mrlBF-157" value="pymongo-api" style="rounded=1;whiteSpace=wrap;html=1;" vertex="1" parent="1">
          <mxGeometry x="490" y="1910" width="120" height="60" as="geometry" />
        </mxCell>
        <mxCell id="ZkxTK4wxiajPIn4mrlBF-158" value="repl-1-1" style="shape=cylinder3;whiteSpace=wrap;html=1;boundedLbl=1;backgroundOutline=1;size=15;fillColor=#e1d5e7;strokeColor=#9673a6;" vertex="1" parent="1">
          <mxGeometry x="760.25" y="1740" width="60" height="80" as="geometry" />
        </mxCell>
        <mxCell id="ZkxTK4wxiajPIn4mrlBF-159" value="repl-1-2" style="shape=cylinder3;whiteSpace=wrap;html=1;boundedLbl=1;backgroundOutline=1;size=15;fillColor=#e1d5e7;strokeColor=#9673a6;" vertex="1" parent="1">
          <mxGeometry x="850.25" y="1740" width="60" height="80" as="geometry" />
        </mxCell>
        <mxCell id="ZkxTK4wxiajPIn4mrlBF-160" value="repl-1-3" style="shape=cylinder3;whiteSpace=wrap;html=1;boundedLbl=1;backgroundOutline=1;size=15;fillColor=#e1d5e7;strokeColor=#9673a6;" vertex="1" parent="1">
          <mxGeometry x="940.25" y="1740" width="60" height="80" as="geometry" />
        </mxCell>
        <mxCell id="ZkxTK4wxiajPIn4mrlBF-161" value="repl-2-1" style="shape=cylinder3;whiteSpace=wrap;html=1;boundedLbl=1;backgroundOutline=1;size=15;fillColor=#f8cecc;strokeColor=#b85450;" vertex="1" parent="1">
          <mxGeometry x="760.25" y="2040" width="60" height="80" as="geometry" />
        </mxCell>
        <mxCell id="ZkxTK4wxiajPIn4mrlBF-162" value="repl-2-2" style="shape=cylinder3;whiteSpace=wrap;html=1;boundedLbl=1;backgroundOutline=1;size=15;fillColor=#f8cecc;strokeColor=#b85450;" vertex="1" parent="1">
          <mxGeometry x="850.25" y="2040" width="60" height="80" as="geometry" />
        </mxCell>
        <mxCell id="ZkxTK4wxiajPIn4mrlBF-163" value="repl-2-3" style="shape=cylinder3;whiteSpace=wrap;html=1;boundedLbl=1;backgroundOutline=1;size=15;fillColor=#f8cecc;strokeColor=#b85450;" vertex="1" parent="1">
          <mxGeometry x="940.25" y="2040" width="60" height="80" as="geometry" />
        </mxCell>
        <mxCell id="ZkxTK4wxiajPIn4mrlBF-164" value="redis1" style="shape=cylinder3;whiteSpace=wrap;html=1;boundedLbl=1;backgroundOutline=1;size=15;fillColor=#bac8d3;strokeColor=#23445d;" vertex="1" parent="1">
          <mxGeometry x="640" y="1740" width="60" height="80" as="geometry" />
        </mxCell>
        <mxCell id="ZkxTK4wxiajPIn4mrlBF-165" style="edgeStyle=orthogonalEdgeStyle;rounded=0;orthogonalLoop=1;jettySize=auto;html=1;exitX=0;exitY=0.5;exitDx=0;exitDy=0;entryX=1;entryY=0.5;entryDx=0;entryDy=0;endArrow=none;endFill=0;dashed=1;dashPattern=8 8;" edge="1" parent="1" source="ZkxTK4wxiajPIn4mrlBF-169" target="ZkxTK4wxiajPIn4mrlBF-173">
          <mxGeometry relative="1" as="geometry" />
        </mxCell>
        <mxCell id="ZkxTK4wxiajPIn4mrlBF-166" style="edgeStyle=orthogonalEdgeStyle;rounded=1;orthogonalLoop=1;jettySize=auto;html=1;exitX=0.5;exitY=0;exitDx=0;exitDy=0;entryX=1;entryY=0.5;entryDx=0;entryDy=0;curved=0;strokeColor=#FF8000;strokeWidth=2;" edge="1" parent="1" source="ZkxTK4wxiajPIn4mrlBF-169" target="ZkxTK4wxiajPIn4mrlBF-174">
          <mxGeometry relative="1" as="geometry" />
        </mxCell>
        <mxCell id="ZkxTK4wxiajPIn4mrlBF-167" style="edgeStyle=orthogonalEdgeStyle;rounded=1;orthogonalLoop=1;jettySize=auto;html=1;exitX=0.5;exitY=1;exitDx=0;exitDy=0;entryX=0.5;entryY=1;entryDx=0;entryDy=0;curved=0;" edge="1" parent="1" target="ZkxTK4wxiajPIn4mrlBF-175">
          <mxGeometry relative="1" as="geometry">
            <mxPoint x="660" y="1880" as="sourcePoint" />
          </mxGeometry>
        </mxCell>
        <mxCell id="ZkxTK4wxiajPIn4mrlBF-168" style="edgeStyle=orthogonalEdgeStyle;rounded=1;orthogonalLoop=1;jettySize=auto;html=1;exitX=0.5;exitY=1;exitDx=0;exitDy=0;curved=0;" edge="1" parent="1" target="ZkxTK4wxiajPIn4mrlBF-177">
          <mxGeometry relative="1" as="geometry">
            <mxPoint x="660" y="1880" as="sourcePoint" />
          </mxGeometry>
        </mxCell>
        <mxCell id="ZkxTK4wxiajPIn4mrlBF-169" value="Роутер-2" style="rounded=1;whiteSpace=wrap;html=1;fillColor=#fff2cc;strokeColor=#d6b656;rotation=-90;" vertex="1" parent="1">
          <mxGeometry x="687.25" y="1860" width="65" height="40" as="geometry" />
        </mxCell>
        <mxCell id="ZkxTK4wxiajPIn4mrlBF-170" style="edgeStyle=orthogonalEdgeStyle;rounded=1;orthogonalLoop=1;jettySize=auto;html=1;exitX=0.5;exitY=0;exitDx=0;exitDy=0;entryX=1;entryY=0.5;entryDx=0;entryDy=0;curved=0;strokeColor=#FF8000;strokeWidth=2;" edge="1" parent="1" source="ZkxTK4wxiajPIn4mrlBF-173" target="ZkxTK4wxiajPIn4mrlBF-174">
          <mxGeometry relative="1" as="geometry" />
        </mxCell>
        <mxCell id="ZkxTK4wxiajPIn4mrlBF-171" style="edgeStyle=orthogonalEdgeStyle;rounded=1;orthogonalLoop=1;jettySize=auto;html=1;exitX=0.5;exitY=1;exitDx=0;exitDy=0;entryX=0.75;entryY=1;entryDx=0;entryDy=0;curved=0;" edge="1" parent="1" target="ZkxTK4wxiajPIn4mrlBF-175">
          <mxGeometry relative="1" as="geometry">
            <mxPoint x="660.5" y="2000" as="sourcePoint" />
          </mxGeometry>
        </mxCell>
        <mxCell id="ZkxTK4wxiajPIn4mrlBF-172" style="edgeStyle=orthogonalEdgeStyle;rounded=1;orthogonalLoop=1;jettySize=auto;html=1;exitX=0.5;exitY=1;exitDx=0;exitDy=0;entryX=0.75;entryY=0;entryDx=0;entryDy=0;curved=0;" edge="1" parent="1" target="ZkxTK4wxiajPIn4mrlBF-177">
          <mxGeometry relative="1" as="geometry">
            <mxPoint x="660.5" y="2000" as="sourcePoint" />
          </mxGeometry>
        </mxCell>
        <mxCell id="ZkxTK4wxiajPIn4mrlBF-173" value="Роутер-1" style="rounded=1;whiteSpace=wrap;html=1;fillColor=#fff2cc;strokeColor=#d6b656;rotation=-90;" vertex="1" parent="1">
          <mxGeometry x="687.75" y="1980" width="65" height="40" as="geometry" />
        </mxCell>
        <mxCell id="ZkxTK4wxiajPIn4mrlBF-174" value="Конфигурационный сервер" style="rounded=1;whiteSpace=wrap;html=1;fillColor=#ffe6cc;strokeColor=#d79b00;" vertex="1" parent="1">
          <mxGeometry x="490" y="2170" width="120" height="50" as="geometry" />
        </mxCell>
        <mxCell id="ZkxTK4wxiajPIn4mrlBF-175" value="" style="rounded=1;whiteSpace=wrap;html=1;fillColor=none;dashed=1;" vertex="1" parent="1">
          <mxGeometry x="740" y="1700" width="290" height="160" as="geometry" />
        </mxCell>
        <mxCell id="ZkxTK4wxiajPIn4mrlBF-176" value="rs0" style="text;html=1;align=center;verticalAlign=middle;whiteSpace=wrap;rounded=0;" vertex="1" parent="1">
          <mxGeometry x="965.25" y="1700" width="60" height="30" as="geometry" />
        </mxCell>
        <mxCell id="ZkxTK4wxiajPIn4mrlBF-177" value="" style="rounded=1;whiteSpace=wrap;html=1;fillColor=none;dashed=1;" vertex="1" parent="1">
          <mxGeometry x="740" y="2020" width="300" height="160" as="geometry" />
        </mxCell>
        <mxCell id="ZkxTK4wxiajPIn4mrlBF-178" value="rs1" style="text;html=1;align=center;verticalAlign=middle;whiteSpace=wrap;rounded=0;" vertex="1" parent="1">
          <mxGeometry x="965.25" y="2150" width="60" height="30" as="geometry" />
        </mxCell>
        <mxCell id="ZkxTK4wxiajPIn4mrlBF-179" style="edgeStyle=orthogonalEdgeStyle;rounded=1;orthogonalLoop=1;jettySize=auto;html=1;exitX=0.5;exitY=0;exitDx=0;exitDy=0;entryX=0;entryY=0.5;entryDx=0;entryDy=0;entryPerimeter=0;curved=0;" edge="1" parent="1" source="ZkxTK4wxiajPIn4mrlBF-157" target="ZkxTK4wxiajPIn4mrlBF-164">
          <mxGeometry relative="1" as="geometry" />
        </mxCell>
        <mxCell id="ZkxTK4wxiajPIn4mrlBF-180" value="pymongo-api" style="rounded=1;whiteSpace=wrap;html=1;" vertex="1" parent="1">
          <mxGeometry x="490" y="2010" width="120" height="60" as="geometry" />
        </mxCell>
        <mxCell id="ZkxTK4wxiajPIn4mrlBF-181" style="edgeStyle=orthogonalEdgeStyle;rounded=1;orthogonalLoop=1;jettySize=auto;html=1;exitX=0;exitY=0.5;exitDx=0;exitDy=0;entryX=1;entryY=0.5;entryDx=0;entryDy=0;curved=0;strokeColor=#B1DDF0;strokeWidth=3;" edge="1" parent="1" source="ZkxTK4wxiajPIn4mrlBF-182" target="ZkxTK4wxiajPIn4mrlBF-185">
          <mxGeometry relative="1" as="geometry">
            <Array as="points">
              <mxPoint x="450" y="1910" />
            </Array>
          </mxGeometry>
        </mxCell>
        <mxCell id="ZkxTK4wxiajPIn4mrlBF-182" value="" style="rounded=1;whiteSpace=wrap;html=1;fillColor=default;dashed=1;fillStyle=auto;opacity=50;" vertex="1" parent="1">
          <mxGeometry x="450" y="1860" width="190" height="120" as="geometry" />
        </mxCell>
        <mxCell id="ZkxTK4wxiajPIn4mrlBF-183" style="edgeStyle=orthogonalEdgeStyle;rounded=1;orthogonalLoop=1;jettySize=auto;html=1;exitX=0;exitY=0.5;exitDx=0;exitDy=0;entryX=1;entryY=0.5;entryDx=0;entryDy=0;curved=0;strokeColor=#B1DDF0;strokeWidth=3;" edge="1" parent="1" source="ZkxTK4wxiajPIn4mrlBF-184" target="ZkxTK4wxiajPIn4mrlBF-185">
          <mxGeometry relative="1" as="geometry" />
        </mxCell>
        <mxCell id="ZkxTK4wxiajPIn4mrlBF-184" value="" style="rounded=1;whiteSpace=wrap;html=1;fillColor=default;dashed=1;opacity=50;" vertex="1" parent="1">
          <mxGeometry x="450" y="2000" width="190" height="110" as="geometry" />
        </mxCell>
        <mxCell id="ZkxTK4wxiajPIn4mrlBF-185" value="Consul" style="rounded=0;whiteSpace=wrap;html=1;fillColor=#dae8fc;strokeColor=#6c8ebf;" vertex="1" parent="1">
          <mxGeometry x="250" y="1880" width="120" height="60" as="geometry" />
        </mxCell>
        <mxCell id="ZkxTK4wxiajPIn4mrlBF-186" style="edgeStyle=orthogonalEdgeStyle;rounded=1;orthogonalLoop=1;jettySize=auto;html=1;exitX=1;exitY=0.5;exitDx=0;exitDy=0;entryX=0;entryY=0.75;entryDx=0;entryDy=0;curved=0;strokeColor=#97D077;strokeWidth=3;" edge="1" parent="1" source="ZkxTK4wxiajPIn4mrlBF-188" target="ZkxTK4wxiajPIn4mrlBF-182">
          <mxGeometry relative="1" as="geometry">
            <Array as="points">
              <mxPoint x="430" y="2080" />
              <mxPoint x="430" y="1950" />
            </Array>
          </mxGeometry>
        </mxCell>
        <mxCell id="ZkxTK4wxiajPIn4mrlBF-187" style="edgeStyle=orthogonalEdgeStyle;rounded=1;orthogonalLoop=1;jettySize=auto;html=1;exitX=1;exitY=0.75;exitDx=0;exitDy=0;entryX=0.25;entryY=1;entryDx=0;entryDy=0;curved=0;strokeColor=#97D077;strokeWidth=3;" edge="1" parent="1" source="ZkxTK4wxiajPIn4mrlBF-188" target="ZkxTK4wxiajPIn4mrlBF-184">
          <mxGeometry relative="1" as="geometry" />
        </mxCell>
        <mxCell id="ZkxTK4wxiajPIn4mrlBF-188" value="APISIX Gateway" style="rounded=0;whiteSpace=wrap;html=1;fillColor=#d5e8d4;strokeColor=#82b366;" vertex="1" parent="1">
          <mxGeometry x="250" y="2050" width="120" height="60" as="geometry" />
        </mxCell>
        <mxCell id="ZkxTK4wxiajPIn4mrlBF-189" style="edgeStyle=orthogonalEdgeStyle;rounded=1;orthogonalLoop=1;jettySize=auto;html=1;exitX=0.5;exitY=0;exitDx=0;exitDy=0;entryX=0.5;entryY=1;entryDx=0;entryDy=0;curved=0;" edge="1" parent="1" source="ZkxTK4wxiajPIn4mrlBF-190" target="ZkxTK4wxiajPIn4mrlBF-185">
          <mxGeometry relative="1" as="geometry" />
        </mxCell>
        <mxCell id="ZkxTK4wxiajPIn4mrlBF-190" value="consul_kv" style="rounded=1;whiteSpace=wrap;html=1;fillColor=#d5e8d4;strokeColor=#82b366;opacity=50;" vertex="1" parent="1">
          <mxGeometry x="300" y="2040" width="90" height="30" as="geometry" />
        </mxCell>
        <mxCell id="ZkxTK4wxiajPIn4mrlBF-191" style="edgeStyle=orthogonalEdgeStyle;rounded=0;orthogonalLoop=1;jettySize=auto;html=1;exitX=1;exitY=0.5;exitDx=0;exitDy=0;entryX=0;entryY=0.5;entryDx=0;entryDy=0;" edge="1" parent="1" source="ZkxTK4wxiajPIn4mrlBF-192" target="ZkxTK4wxiajPIn4mrlBF-188">
          <mxGeometry relative="1" as="geometry" />
        </mxCell>
        <mxCell id="ZkxTK4wxiajPIn4mrlBF-192" value="Сайт" style="rounded=1;whiteSpace=wrap;html=1;fillColor=#b1ddf0;strokeColor=#10739e;" vertex="1" parent="1">
          <mxGeometry x="80" y="2050" width="120" height="60" as="geometry" />
        </mxCell>
        <mxCell id="ZkxTK4wxiajPIn4mrlBF-193" value="" style="edgeStyle=orthogonalEdgeStyle;rounded=0;orthogonalLoop=1;jettySize=auto;html=1;" edge="1" parent="1" source="ZkxTK4wxiajPIn4mrlBF-194" target="ZkxTK4wxiajPIn4mrlBF-192">
          <mxGeometry relative="1" as="geometry" />
        </mxCell>
        <mxCell id="ZkxTK4wxiajPIn4mrlBF-194" value="Actor" style="shape=umlActor;verticalLabelPosition=bottom;verticalAlign=top;html=1;outlineConnect=0;" vertex="1" parent="1">
          <mxGeometry x="125" y="1910" width="30" height="60" as="geometry" />
        </mxCell>
        <mxCell id="ZkxTK4wxiajPIn4mrlBF-195" value="" style="sketch=0;aspect=fixed;pointerEvents=1;shadow=0;dashed=0;html=1;strokeColor=none;labelPosition=center;verticalLabelPosition=bottom;verticalAlign=top;align=center;fillColor=#00188D;shape=mxgraph.azure.cloud" vertex="1" parent="1">
          <mxGeometry x="170" y="1750" width="125" height="80" as="geometry" />
        </mxCell>
        <mxCell id="ZkxTK4wxiajPIn4mrlBF-196" value="CDN" style="text;html=1;align=center;verticalAlign=middle;whiteSpace=wrap;rounded=0;fontColor=#FFFFFF;fontSize=20;" vertex="1" parent="1">
          <mxGeometry x="207.5" y="1780" width="60" height="30" as="geometry" />
        </mxCell>
        <mxCell id="ZkxTK4wxiajPIn4mrlBF-197" style="edgeStyle=orthogonalEdgeStyle;rounded=1;orthogonalLoop=1;jettySize=auto;html=1;exitX=0.75;exitY=0;exitDx=0;exitDy=0;entryX=0.5;entryY=1;entryDx=0;entryDy=0;entryPerimeter=0;curved=0;" edge="1" parent="1" source="ZkxTK4wxiajPIn4mrlBF-192" target="ZkxTK4wxiajPIn4mrlBF-195">
          <mxGeometry relative="1" as="geometry" />
        </mxCell>
      </root>
    </mxGraphModel>
  </diagram>
  <diagram id="ulj1IMaujeU7pZyOmuwR" name="Страница — 2">
    <mxGraphModel dx="1272" dy="853" grid="1" gridSize="10" guides="1" tooltips="1" connect="1" arrows="1" fold="1" page="1" pageScale="1" pageWidth="827" pageHeight="1169" math="0" shadow="0">
      <root>
        <mxCell id="0" />
        <mxCell id="1" parent="0" />
        <mxCell id="kXjU2O2Nu_doR2x44m6x-1" value="shard-1" style="shape=cylinder3;whiteSpace=wrap;html=1;boundedLbl=1;backgroundOutline=1;size=15;fillColor=#d0cee2;strokeColor=#56517e;" vertex="1" parent="1">
          <mxGeometry x="690" y="980" width="60" height="80" as="geometry" />
        </mxCell>
        <mxCell id="kXjU2O2Nu_doR2x44m6x-2" style="edgeStyle=orthogonalEdgeStyle;rounded=1;orthogonalLoop=1;jettySize=auto;html=1;exitX=1;exitY=0.5;exitDx=0;exitDy=0;curved=0;" edge="1" parent="1" source="kXjU2O2Nu_doR2x44m6x-4" target="kXjU2O2Nu_doR2x44m6x-44">
          <mxGeometry relative="1" as="geometry" />
        </mxCell>
        <mxCell id="kXjU2O2Nu_doR2x44m6x-3" style="edgeStyle=orthogonalEdgeStyle;rounded=1;orthogonalLoop=1;jettySize=auto;html=1;exitX=1;exitY=0.5;exitDx=0;exitDy=0;curved=0;" edge="1" parent="1" source="kXjU2O2Nu_doR2x44m6x-4" target="kXjU2O2Nu_doR2x44m6x-46">
          <mxGeometry relative="1" as="geometry" />
        </mxCell>
        <mxCell id="kXjU2O2Nu_doR2x44m6x-4" value="pymongo-api" style="rounded=1;whiteSpace=wrap;html=1;" vertex="1" parent="1">
          <mxGeometry x="360" y="1070" width="120" height="60" as="geometry" />
        </mxCell>
        <mxCell id="kXjU2O2Nu_doR2x44m6x-5" value="shard-2" style="shape=cylinder3;whiteSpace=wrap;html=1;boundedLbl=1;backgroundOutline=1;size=15;fillColor=#fad9d5;strokeColor=#ae4132;" vertex="1" parent="1">
          <mxGeometry x="690" y="1120" width="60" height="80" as="geometry" />
        </mxCell>
        <mxCell id="kXjU2O2Nu_doR2x44m6x-6" style="edgeStyle=orthogonalEdgeStyle;rounded=0;orthogonalLoop=1;jettySize=auto;html=1;exitX=0.5;exitY=0;exitDx=0;exitDy=0;exitPerimeter=0;" edge="1" parent="1" source="kXjU2O2Nu_doR2x44m6x-8" target="kXjU2O2Nu_doR2x44m6x-22">
          <mxGeometry relative="1" as="geometry" />
        </mxCell>
        <mxCell id="kXjU2O2Nu_doR2x44m6x-7" style="edgeStyle=orthogonalEdgeStyle;rounded=0;orthogonalLoop=1;jettySize=auto;html=1;exitX=0.5;exitY=0;exitDx=0;exitDy=0;exitPerimeter=0;strokeColor=default;" edge="1" parent="1" source="kXjU2O2Nu_doR2x44m6x-8" target="kXjU2O2Nu_doR2x44m6x-23">
          <mxGeometry relative="1" as="geometry" />
        </mxCell>
        <mxCell id="kXjU2O2Nu_doR2x44m6x-8" value="repl-1-1" style="shape=cylinder3;whiteSpace=wrap;html=1;boundedLbl=1;backgroundOutline=1;size=15;fillColor=#e1d5e7;strokeColor=#9673a6;" vertex="1" parent="1">
          <mxGeometry x="800" y="900" width="60" height="80" as="geometry" />
        </mxCell>
        <mxCell id="kXjU2O2Nu_doR2x44m6x-9" value="repl-1-2" style="shape=cylinder3;whiteSpace=wrap;html=1;boundedLbl=1;backgroundOutline=1;size=15;fillColor=#e1d5e7;strokeColor=#9673a6;" vertex="1" parent="1">
          <mxGeometry x="890" y="900" width="60" height="80" as="geometry" />
        </mxCell>
        <mxCell id="kXjU2O2Nu_doR2x44m6x-10" value="repl-1-3" style="shape=cylinder3;whiteSpace=wrap;html=1;boundedLbl=1;backgroundOutline=1;size=15;fillColor=#e1d5e7;strokeColor=#9673a6;" vertex="1" parent="1">
          <mxGeometry x="980" y="900" width="60" height="80" as="geometry" />
        </mxCell>
        <mxCell id="kXjU2O2Nu_doR2x44m6x-11" style="edgeStyle=orthogonalEdgeStyle;rounded=1;orthogonalLoop=1;jettySize=auto;html=1;exitX=1;exitY=0.5;exitDx=0;exitDy=0;exitPerimeter=0;entryX=0.5;entryY=1;entryDx=0;entryDy=0;entryPerimeter=0;curved=0;" edge="1" parent="1" source="kXjU2O2Nu_doR2x44m6x-1" target="kXjU2O2Nu_doR2x44m6x-8">
          <mxGeometry relative="1" as="geometry" />
        </mxCell>
        <mxCell id="kXjU2O2Nu_doR2x44m6x-12" style="edgeStyle=orthogonalEdgeStyle;rounded=1;orthogonalLoop=1;jettySize=auto;html=1;exitX=1;exitY=0.5;exitDx=0;exitDy=0;exitPerimeter=0;entryX=0.5;entryY=1;entryDx=0;entryDy=0;entryPerimeter=0;curved=0;" edge="1" parent="1" source="kXjU2O2Nu_doR2x44m6x-1" target="kXjU2O2Nu_doR2x44m6x-9">
          <mxGeometry relative="1" as="geometry" />
        </mxCell>
        <mxCell id="kXjU2O2Nu_doR2x44m6x-13" style="edgeStyle=orthogonalEdgeStyle;rounded=1;orthogonalLoop=1;jettySize=auto;html=1;exitX=1;exitY=0.5;exitDx=0;exitDy=0;exitPerimeter=0;entryX=0.5;entryY=1;entryDx=0;entryDy=0;entryPerimeter=0;curved=0;" edge="1" parent="1" source="kXjU2O2Nu_doR2x44m6x-1" target="kXjU2O2Nu_doR2x44m6x-10">
          <mxGeometry relative="1" as="geometry" />
        </mxCell>
        <mxCell id="kXjU2O2Nu_doR2x44m6x-14" style="edgeStyle=orthogonalEdgeStyle;rounded=0;orthogonalLoop=1;jettySize=auto;html=1;exitX=0.5;exitY=1;exitDx=0;exitDy=0;exitPerimeter=0;" edge="1" parent="1" source="kXjU2O2Nu_doR2x44m6x-16" target="kXjU2O2Nu_doR2x44m6x-33">
          <mxGeometry relative="1" as="geometry" />
        </mxCell>
        <mxCell id="kXjU2O2Nu_doR2x44m6x-15" style="edgeStyle=orthogonalEdgeStyle;rounded=0;orthogonalLoop=1;jettySize=auto;html=1;exitX=0.5;exitY=1;exitDx=0;exitDy=0;exitPerimeter=0;" edge="1" parent="1" source="kXjU2O2Nu_doR2x44m6x-16" target="kXjU2O2Nu_doR2x44m6x-34">
          <mxGeometry relative="1" as="geometry" />
        </mxCell>
        <mxCell id="kXjU2O2Nu_doR2x44m6x-16" value="repl-2-1" style="shape=cylinder3;whiteSpace=wrap;html=1;boundedLbl=1;backgroundOutline=1;size=15;fillColor=#f8cecc;strokeColor=#b85450;" vertex="1" parent="1">
          <mxGeometry x="800" y="1200" width="60" height="80" as="geometry" />
        </mxCell>
        <mxCell id="kXjU2O2Nu_doR2x44m6x-17" value="repl-2-2" style="shape=cylinder3;whiteSpace=wrap;html=1;boundedLbl=1;backgroundOutline=1;size=15;fillColor=#f8cecc;strokeColor=#b85450;" vertex="1" parent="1">
          <mxGeometry x="890" y="1200" width="60" height="80" as="geometry" />
        </mxCell>
        <mxCell id="kXjU2O2Nu_doR2x44m6x-18" value="repl-2-3" style="shape=cylinder3;whiteSpace=wrap;html=1;boundedLbl=1;backgroundOutline=1;size=15;fillColor=#f8cecc;strokeColor=#b85450;" vertex="1" parent="1">
          <mxGeometry x="980" y="1200" width="60" height="80" as="geometry" />
        </mxCell>
        <mxCell id="kXjU2O2Nu_doR2x44m6x-19" style="edgeStyle=orthogonalEdgeStyle;rounded=1;orthogonalLoop=1;jettySize=auto;html=1;exitX=1;exitY=0.5;exitDx=0;exitDy=0;exitPerimeter=0;entryX=0.5;entryY=0;entryDx=0;entryDy=0;entryPerimeter=0;curved=0;" edge="1" parent="1" source="kXjU2O2Nu_doR2x44m6x-5" target="kXjU2O2Nu_doR2x44m6x-16">
          <mxGeometry relative="1" as="geometry" />
        </mxCell>
        <mxCell id="kXjU2O2Nu_doR2x44m6x-20" style="edgeStyle=orthogonalEdgeStyle;rounded=1;orthogonalLoop=1;jettySize=auto;html=1;exitX=1;exitY=0.5;exitDx=0;exitDy=0;exitPerimeter=0;entryX=0.5;entryY=0;entryDx=0;entryDy=0;entryPerimeter=0;curved=0;" edge="1" parent="1" source="kXjU2O2Nu_doR2x44m6x-5" target="kXjU2O2Nu_doR2x44m6x-17">
          <mxGeometry relative="1" as="geometry" />
        </mxCell>
        <mxCell id="kXjU2O2Nu_doR2x44m6x-21" style="edgeStyle=orthogonalEdgeStyle;rounded=1;orthogonalLoop=1;jettySize=auto;html=1;exitX=1;exitY=0.5;exitDx=0;exitDy=0;exitPerimeter=0;entryX=0.5;entryY=0;entryDx=0;entryDy=0;entryPerimeter=0;curved=0;" edge="1" parent="1" source="kXjU2O2Nu_doR2x44m6x-5" target="kXjU2O2Nu_doR2x44m6x-18">
          <mxGeometry relative="1" as="geometry" />
        </mxCell>
        <mxCell id="kXjU2O2Nu_doR2x44m6x-22" value="redis1" style="shape=cylinder3;whiteSpace=wrap;html=1;boundedLbl=1;backgroundOutline=1;size=15;fillColor=#bac8d3;strokeColor=#23445d;" vertex="1" parent="1">
          <mxGeometry x="800" y="750" width="60" height="80" as="geometry" />
        </mxCell>
        <mxCell id="kXjU2O2Nu_doR2x44m6x-23" value="redis2" style="shape=cylinder3;whiteSpace=wrap;html=1;boundedLbl=1;backgroundOutline=1;size=15;fillColor=#bac8d3;strokeColor=#23445d;" vertex="1" parent="1">
          <mxGeometry x="890" y="750" width="60" height="80" as="geometry" />
        </mxCell>
        <mxCell id="kXjU2O2Nu_doR2x44m6x-24" value="redis3" style="shape=cylinder3;whiteSpace=wrap;html=1;boundedLbl=1;backgroundOutline=1;size=15;fillColor=#bac8d3;strokeColor=#23445d;" vertex="1" parent="1">
          <mxGeometry x="980" y="750" width="60" height="80" as="geometry" />
        </mxCell>
        <mxCell id="kXjU2O2Nu_doR2x44m6x-25" style="edgeStyle=orthogonalEdgeStyle;rounded=0;orthogonalLoop=1;jettySize=auto;html=1;exitX=0.5;exitY=0;exitDx=0;exitDy=0;exitPerimeter=0;entryX=0.5;entryY=1;entryDx=0;entryDy=0;entryPerimeter=0;" edge="1" parent="1" source="kXjU2O2Nu_doR2x44m6x-8" target="kXjU2O2Nu_doR2x44m6x-24">
          <mxGeometry relative="1" as="geometry" />
        </mxCell>
        <mxCell id="kXjU2O2Nu_doR2x44m6x-26" style="edgeStyle=orthogonalEdgeStyle;rounded=0;orthogonalLoop=1;jettySize=auto;html=1;exitX=0.5;exitY=0;exitDx=0;exitDy=0;exitPerimeter=0;entryX=0.855;entryY=1;entryDx=0;entryDy=-4.35;entryPerimeter=0;" edge="1" parent="1" source="kXjU2O2Nu_doR2x44m6x-9" target="kXjU2O2Nu_doR2x44m6x-22">
          <mxGeometry relative="1" as="geometry" />
        </mxCell>
        <mxCell id="kXjU2O2Nu_doR2x44m6x-27" style="edgeStyle=orthogonalEdgeStyle;rounded=0;orthogonalLoop=1;jettySize=auto;html=1;exitX=0.5;exitY=0;exitDx=0;exitDy=0;exitPerimeter=0;entryX=0.855;entryY=1;entryDx=0;entryDy=-4.35;entryPerimeter=0;" edge="1" parent="1" source="kXjU2O2Nu_doR2x44m6x-10" target="kXjU2O2Nu_doR2x44m6x-23">
          <mxGeometry relative="1" as="geometry" />
        </mxCell>
        <mxCell id="kXjU2O2Nu_doR2x44m6x-28" style="edgeStyle=orthogonalEdgeStyle;rounded=0;orthogonalLoop=1;jettySize=auto;html=1;exitX=0.5;exitY=0;exitDx=0;exitDy=0;exitPerimeter=0;entryX=0.855;entryY=1;entryDx=0;entryDy=-4.35;entryPerimeter=0;" edge="1" parent="1" source="kXjU2O2Nu_doR2x44m6x-9" target="kXjU2O2Nu_doR2x44m6x-24">
          <mxGeometry relative="1" as="geometry" />
        </mxCell>
        <mxCell id="kXjU2O2Nu_doR2x44m6x-29" style="edgeStyle=orthogonalEdgeStyle;rounded=0;orthogonalLoop=1;jettySize=auto;html=1;exitX=0.5;exitY=0;exitDx=0;exitDy=0;exitPerimeter=0;entryX=0.145;entryY=1;entryDx=0;entryDy=-4.35;entryPerimeter=0;" edge="1" parent="1" source="kXjU2O2Nu_doR2x44m6x-10" target="kXjU2O2Nu_doR2x44m6x-24">
          <mxGeometry relative="1" as="geometry" />
        </mxCell>
        <mxCell id="kXjU2O2Nu_doR2x44m6x-30" style="edgeStyle=orthogonalEdgeStyle;rounded=0;orthogonalLoop=1;jettySize=auto;html=1;exitX=0.5;exitY=0;exitDx=0;exitDy=0;exitPerimeter=0;entryX=0.145;entryY=1;entryDx=0;entryDy=-4.35;entryPerimeter=0;" edge="1" parent="1" source="kXjU2O2Nu_doR2x44m6x-10" target="kXjU2O2Nu_doR2x44m6x-23">
          <mxGeometry relative="1" as="geometry" />
        </mxCell>
        <mxCell id="kXjU2O2Nu_doR2x44m6x-31" style="edgeStyle=orthogonalEdgeStyle;rounded=0;orthogonalLoop=1;jettySize=auto;html=1;exitX=0.5;exitY=0;exitDx=0;exitDy=0;exitPerimeter=0;entryX=0.145;entryY=1;entryDx=0;entryDy=-4.35;entryPerimeter=0;" edge="1" parent="1" source="kXjU2O2Nu_doR2x44m6x-8" target="kXjU2O2Nu_doR2x44m6x-22">
          <mxGeometry relative="1" as="geometry" />
        </mxCell>
        <mxCell id="kXjU2O2Nu_doR2x44m6x-32" value="redis4" style="shape=cylinder3;whiteSpace=wrap;html=1;boundedLbl=1;backgroundOutline=1;size=15;fillColor=#ffcccc;strokeColor=#36393d;" vertex="1" parent="1">
          <mxGeometry x="800" y="1340" width="60" height="80" as="geometry" />
        </mxCell>
        <mxCell id="kXjU2O2Nu_doR2x44m6x-33" value="redis5" style="shape=cylinder3;whiteSpace=wrap;html=1;boundedLbl=1;backgroundOutline=1;size=15;fillColor=#ffcccc;strokeColor=#36393d;" vertex="1" parent="1">
          <mxGeometry x="890" y="1340" width="60" height="80" as="geometry" />
        </mxCell>
        <mxCell id="kXjU2O2Nu_doR2x44m6x-34" value="redis6" style="shape=cylinder3;whiteSpace=wrap;html=1;boundedLbl=1;backgroundOutline=1;size=15;fillColor=#ffcccc;strokeColor=#36393d;" vertex="1" parent="1">
          <mxGeometry x="980" y="1340" width="60" height="80" as="geometry" />
        </mxCell>
        <mxCell id="kXjU2O2Nu_doR2x44m6x-35" style="edgeStyle=orthogonalEdgeStyle;rounded=0;orthogonalLoop=1;jettySize=auto;html=1;exitX=0.5;exitY=1;exitDx=0;exitDy=0;exitPerimeter=0;entryX=0.5;entryY=0;entryDx=0;entryDy=0;entryPerimeter=0;" edge="1" parent="1" source="kXjU2O2Nu_doR2x44m6x-16" target="kXjU2O2Nu_doR2x44m6x-32">
          <mxGeometry relative="1" as="geometry" />
        </mxCell>
        <mxCell id="kXjU2O2Nu_doR2x44m6x-36" style="edgeStyle=orthogonalEdgeStyle;rounded=0;orthogonalLoop=1;jettySize=auto;html=1;exitX=0.5;exitY=1;exitDx=0;exitDy=0;exitPerimeter=0;entryX=0.145;entryY=0;entryDx=0;entryDy=4.35;entryPerimeter=0;" edge="1" parent="1" source="kXjU2O2Nu_doR2x44m6x-17" target="kXjU2O2Nu_doR2x44m6x-32">
          <mxGeometry relative="1" as="geometry" />
        </mxCell>
        <mxCell id="kXjU2O2Nu_doR2x44m6x-37" style="edgeStyle=orthogonalEdgeStyle;rounded=0;orthogonalLoop=1;jettySize=auto;html=1;exitX=0.5;exitY=1;exitDx=0;exitDy=0;exitPerimeter=0;entryX=0.855;entryY=0;entryDx=0;entryDy=4.35;entryPerimeter=0;" edge="1" parent="1" source="kXjU2O2Nu_doR2x44m6x-18" target="kXjU2O2Nu_doR2x44m6x-32">
          <mxGeometry relative="1" as="geometry" />
        </mxCell>
        <mxCell id="kXjU2O2Nu_doR2x44m6x-38" style="edgeStyle=orthogonalEdgeStyle;rounded=0;orthogonalLoop=1;jettySize=auto;html=1;exitX=0.5;exitY=1;exitDx=0;exitDy=0;exitPerimeter=0;entryX=0.145;entryY=0;entryDx=0;entryDy=4.35;entryPerimeter=0;" edge="1" parent="1" source="kXjU2O2Nu_doR2x44m6x-17" target="kXjU2O2Nu_doR2x44m6x-33">
          <mxGeometry relative="1" as="geometry" />
        </mxCell>
        <mxCell id="kXjU2O2Nu_doR2x44m6x-39" style="edgeStyle=orthogonalEdgeStyle;rounded=0;orthogonalLoop=1;jettySize=auto;html=1;exitX=0.5;exitY=1;exitDx=0;exitDy=0;exitPerimeter=0;entryX=0.855;entryY=0;entryDx=0;entryDy=4.35;entryPerimeter=0;" edge="1" parent="1" source="kXjU2O2Nu_doR2x44m6x-17" target="kXjU2O2Nu_doR2x44m6x-33">
          <mxGeometry relative="1" as="geometry" />
        </mxCell>
        <mxCell id="kXjU2O2Nu_doR2x44m6x-40" style="edgeStyle=orthogonalEdgeStyle;rounded=0;orthogonalLoop=1;jettySize=auto;html=1;exitX=0.5;exitY=1;exitDx=0;exitDy=0;exitPerimeter=0;entryX=0.145;entryY=0;entryDx=0;entryDy=4.35;entryPerimeter=0;" edge="1" parent="1" source="kXjU2O2Nu_doR2x44m6x-18" target="kXjU2O2Nu_doR2x44m6x-34">
          <mxGeometry relative="1" as="geometry" />
        </mxCell>
        <mxCell id="kXjU2O2Nu_doR2x44m6x-41" style="edgeStyle=orthogonalEdgeStyle;rounded=0;orthogonalLoop=1;jettySize=auto;html=1;exitX=0.5;exitY=1;exitDx=0;exitDy=0;exitPerimeter=0;entryX=0.855;entryY=0;entryDx=0;entryDy=4.35;entryPerimeter=0;" edge="1" parent="1" source="kXjU2O2Nu_doR2x44m6x-18" target="kXjU2O2Nu_doR2x44m6x-34">
          <mxGeometry relative="1" as="geometry" />
        </mxCell>
        <mxCell id="kXjU2O2Nu_doR2x44m6x-42" style="edgeStyle=orthogonalEdgeStyle;rounded=0;orthogonalLoop=1;jettySize=auto;html=1;exitX=0;exitY=0.5;exitDx=0;exitDy=0;entryX=1;entryY=0.5;entryDx=0;entryDy=0;endArrow=none;endFill=0;dashed=1;dashPattern=8 8;" edge="1" parent="1" source="kXjU2O2Nu_doR2x44m6x-44" target="kXjU2O2Nu_doR2x44m6x-46">
          <mxGeometry relative="1" as="geometry" />
        </mxCell>
        <mxCell id="kXjU2O2Nu_doR2x44m6x-43" style="edgeStyle=orthogonalEdgeStyle;rounded=1;orthogonalLoop=1;jettySize=auto;html=1;exitX=0.5;exitY=0;exitDx=0;exitDy=0;entryX=1;entryY=0.5;entryDx=0;entryDy=0;curved=0;strokeColor=#FF8000;strokeWidth=2;" edge="1" parent="1" source="kXjU2O2Nu_doR2x44m6x-44" target="kXjU2O2Nu_doR2x44m6x-47">
          <mxGeometry relative="1" as="geometry" />
        </mxCell>
        <mxCell id="kXjU2O2Nu_doR2x44m6x-44" value="Роутер-2" style="rounded=1;whiteSpace=wrap;html=1;fillColor=#fff2cc;strokeColor=#d6b656;rotation=-90;" vertex="1" parent="1">
          <mxGeometry x="557.25" y="1020" width="65" height="40" as="geometry" />
        </mxCell>
        <mxCell id="kXjU2O2Nu_doR2x44m6x-45" style="edgeStyle=orthogonalEdgeStyle;rounded=1;orthogonalLoop=1;jettySize=auto;html=1;exitX=0.5;exitY=0;exitDx=0;exitDy=0;entryX=1;entryY=0.5;entryDx=0;entryDy=0;curved=0;strokeColor=#FF8000;strokeWidth=2;" edge="1" parent="1" source="kXjU2O2Nu_doR2x44m6x-46" target="kXjU2O2Nu_doR2x44m6x-47">
          <mxGeometry relative="1" as="geometry" />
        </mxCell>
        <mxCell id="kXjU2O2Nu_doR2x44m6x-46" value="Роутер-1" style="rounded=1;whiteSpace=wrap;html=1;fillColor=#fff2cc;strokeColor=#d6b656;rotation=-90;" vertex="1" parent="1">
          <mxGeometry x="557.75" y="1140" width="65" height="40" as="geometry" />
        </mxCell>
        <mxCell id="kXjU2O2Nu_doR2x44m6x-47" value="Конфигурационный сервер" style="rounded=1;whiteSpace=wrap;html=1;fillColor=#ffe6cc;strokeColor=#d79b00;" vertex="1" parent="1">
          <mxGeometry x="360" y="1180" width="120" height="50" as="geometry" />
        </mxCell>
        <mxCell id="kXjU2O2Nu_doR2x44m6x-48" style="edgeStyle=orthogonalEdgeStyle;rounded=1;orthogonalLoop=1;jettySize=auto;html=1;exitX=0.5;exitY=1;exitDx=0;exitDy=0;entryX=0;entryY=0.5;entryDx=0;entryDy=0;entryPerimeter=0;curved=0;" edge="1" parent="1" source="kXjU2O2Nu_doR2x44m6x-44" target="kXjU2O2Nu_doR2x44m6x-5">
          <mxGeometry relative="1" as="geometry" />
        </mxCell>
        <mxCell id="kXjU2O2Nu_doR2x44m6x-49" style="edgeStyle=orthogonalEdgeStyle;rounded=1;orthogonalLoop=1;jettySize=auto;html=1;exitX=0.5;exitY=1;exitDx=0;exitDy=0;entryX=0;entryY=0.5;entryDx=0;entryDy=0;entryPerimeter=0;curved=0;" edge="1" parent="1" source="kXjU2O2Nu_doR2x44m6x-46" target="kXjU2O2Nu_doR2x44m6x-1">
          <mxGeometry relative="1" as="geometry" />
        </mxCell>
        <mxCell id="kXjU2O2Nu_doR2x44m6x-51" style="edgeStyle=orthogonalEdgeStyle;rounded=1;orthogonalLoop=1;jettySize=auto;html=1;exitX=1;exitY=0.5;exitDx=0;exitDy=0;entryX=0.5;entryY=0;entryDx=0;entryDy=0;curved=0;" edge="1" parent="1" source="kXjU2O2Nu_doR2x44m6x-50" target="kXjU2O2Nu_doR2x44m6x-44">
          <mxGeometry relative="1" as="geometry" />
        </mxCell>
        <mxCell id="kXjU2O2Nu_doR2x44m6x-50" value="pymongo-api" style="rounded=1;whiteSpace=wrap;html=1;" vertex="1" parent="1">
          <mxGeometry x="360" y="910" width="120" height="60" as="geometry" />
        </mxCell>
        <mxCell id="kXjU2O2Nu_doR2x44m6x-53" style="edgeStyle=orthogonalEdgeStyle;rounded=0;orthogonalLoop=1;jettySize=auto;html=1;exitX=1;exitY=0.5;exitDx=0;exitDy=0;entryX=0;entryY=0.5;entryDx=0;entryDy=0;" edge="1" parent="1" source="kXjU2O2Nu_doR2x44m6x-52" target="kXjU2O2Nu_doR2x44m6x-50">
          <mxGeometry relative="1" as="geometry" />
        </mxCell>
        <mxCell id="kXjU2O2Nu_doR2x44m6x-54" style="edgeStyle=orthogonalEdgeStyle;rounded=0;orthogonalLoop=1;jettySize=auto;html=1;exitX=1;exitY=0.5;exitDx=0;exitDy=0;entryX=0;entryY=0.5;entryDx=0;entryDy=0;" edge="1" parent="1" source="kXjU2O2Nu_doR2x44m6x-52" target="kXjU2O2Nu_doR2x44m6x-4">
          <mxGeometry relative="1" as="geometry" />
        </mxCell>
        <mxCell id="kXjU2O2Nu_doR2x44m6x-52" value="API-Gateway" style="rounded=1;whiteSpace=wrap;html=1;" vertex="1" parent="1">
          <mxGeometry x="150" y="990" width="120" height="60" as="geometry" />
        </mxCell>
      </root>
    </mxGraphModel>
  </diagram>
</mxfile>
